<svg width="24" height="24" viewBox="0 0 24 24" fill="none" xmlns="http://www.w3.org/2000/svg">
<path d="M17.3311 21.1976C16.2972 22.253 15.1685 22.0864 14.0819 21.5864C12.9321 21.0754 11.8771 21.0532 10.664 21.5864C9.14491 22.2752 8.34317 22.0752 7.43595 21.1976C2.28795 15.6094 3.04749 7.09936 8.89173 6.78828C10.3159 6.86605 11.3075 7.6104 12.1409 7.67706C13.3857 7.41043 14.5777 6.64386 15.9069 6.74385C17.4998 6.87716 18.7025 7.54374 19.4936 8.74359C16.2023 10.8211 16.9829 15.3872 20 16.6648C19.3987 18.3313 18.6181 19.9866 17.3205 21.2087L17.3311 21.1976ZM12.0354 6.72163C11.8771 4.24416 13.7865 2.19997 15.9808 2C16.2867 4.8663 13.5123 6.99937 12.0354 6.72163Z" fill="white"/>
</svg>
