<svg width="27" height="31" viewBox="0 0 27 31" fill="none" xmlns="http://www.w3.org/2000/svg">
<path d="M8.78558 24.3579V25.5073C8.78558 26.7268 9.26287 27.8963 10.1124 28.7586C10.962 29.6208 12.1143 30.1053 13.3158 30.1053C14.5173 30.1053 15.6696 29.6208 16.5191 28.7586C17.3687 27.8963 17.846 26.7268 17.846 25.5073V24.3579M3.15155 11.7136C3.14968 10.3503 3.41367 9.00018 3.92832 7.74095C4.44297 6.48172 5.19809 5.33832 6.15015 4.37667C7.10222 3.41501 8.23241 2.65412 9.47556 2.13785C10.7187 1.62158 12.0503 1.36014 13.3934 1.36861C18.9981 1.4109 23.4812 6.13913 23.4812 11.8435V12.8631C23.4812 18.0092 24.542 20.9955 25.4763 22.6276C25.5769 22.802 25.6305 23.0003 25.6316 23.2024C25.6326 23.4045 25.5812 23.6033 25.4824 23.7788C25.3836 23.9543 25.2409 24.1002 25.0688 24.2019C24.8967 24.3035 24.7012 24.3573 24.5021 24.3579H2.12951C1.93035 24.3573 1.73485 24.3035 1.56273 24.2018C1.39061 24.1001 1.24795 23.9542 1.14916 23.7787C1.05036 23.6032 0.998917 23.4043 1.00002 23.2022C1.00112 23 1.05472 22.8018 1.15542 22.6274C2.09024 20.9952 3.15155 18.009 3.15155 12.8631L3.15155 11.7136Z" stroke="white" stroke-width="1.5" stroke-linecap="round" stroke-linejoin="round"/>
<circle cx="22.2106" cy="4.78947" r="4.78947" fill="#655AD6"/>
</svg>
