<svg width="20" height="22" viewBox="0 0 20 22" fill="none" xmlns="http://www.w3.org/2000/svg">
<path d="M2.12676 22C1.53245 22 1.02941 21.7986 0.617647 21.3958C0.205882 20.993 0 20.5008 0 19.9194V4.51503C0 3.93363 0.205882 3.44152 0.617647 3.0387C1.02941 2.63588 1.53245 2.43447 2.12676 2.43447H3.75559V0H5.56559V2.43447H14.4797V0H16.2444V2.43447H17.8732C18.4675 2.43447 18.9706 2.63588 19.3824 3.0387C19.7941 3.44152 20 3.93363 20 4.51503V19.9194C20 20.5008 19.7941 20.993 19.3824 21.3958C18.9706 21.7986 18.4675 22 17.8732 22H2.12676ZM2.12676 20.2736H17.8732C17.9638 20.2736 18.0468 20.2367 18.1221 20.1629C18.1975 20.0892 18.2353 20.0081 18.2353 19.9194V9.11869H1.76471V19.9194C1.76471 20.0081 1.80245 20.0892 1.87794 20.1629C1.95324 20.2367 2.03618 20.2736 2.12676 20.2736ZM1.76471 7.39232H18.2353V4.51503C18.2353 4.42641 18.1975 4.34527 18.1221 4.27161C18.0468 4.19776 17.9638 4.16084 17.8732 4.16084H2.12676C2.03618 4.16084 1.95324 4.19776 1.87794 4.27161C1.80245 4.34527 1.76471 4.42641 1.76471 4.51503V7.39232Z" fill="white"/>
</svg>
