<svg width="24" height="24" viewBox="0 0 24 24" fill="none" xmlns="http://www.w3.org/2000/svg">
<mask id="mask0_34_880" style="mask-type:alpha" maskUnits="userSpaceOnUse" x="0" y="0" width="24" height="24">
<rect width="24" height="24" fill="#D9D9D9"/>
</mask>
<g mask="url(#mask0_34_880)">
<path d="M1.79822 19.3078V17.0845C1.79822 16.5692 1.93122 16.1093 2.19722 15.7048C2.46322 15.3003 2.81847 14.9856 3.26297 14.7608C4.2133 14.2959 5.16888 13.9375 6.12972 13.6855C7.09072 13.4337 8.1468 13.3078 9.29797 13.3078C10.4493 13.3078 11.5054 13.4337 12.4662 13.6855C13.4272 13.9375 14.3829 14.2959 15.3332 14.7608C15.7777 14.9856 16.133 15.3003 16.399 15.7048C16.665 16.1093 16.798 16.5692 16.798 17.0845V19.3078H1.79822ZM18.798 19.3078V16.9615C18.798 16.3052 18.6373 15.6796 18.316 15.0848C17.9945 14.4901 17.5385 13.9798 16.948 13.554C17.6185 13.654 18.2551 13.8088 18.8577 14.0183C19.4602 14.2279 20.0352 14.4757 20.5827 14.7615C21.0994 15.0372 21.4984 15.3621 21.7797 15.7363C22.0611 16.1103 22.2017 16.5187 22.2017 16.9615V19.3078H18.798ZM9.29797 11.6923C8.33547 11.6923 7.51155 11.3496 6.82622 10.6643C6.14088 9.97876 5.79822 9.15476 5.79822 8.19226C5.79822 7.22976 6.14088 6.40584 6.82622 5.72051C7.51155 5.03501 8.33547 4.69226 9.29797 4.69226C10.2605 4.69226 11.0845 5.03501 11.77 5.72051C12.4553 6.40584 12.798 7.22976 12.798 8.19226C12.798 9.15476 12.4553 9.97876 11.77 10.6643C11.0845 11.3496 10.2605 11.6923 9.29797 11.6923ZM17.9325 8.19226C17.9325 9.15476 17.5898 9.97876 16.9045 10.6643C16.2191 11.3496 15.3952 11.6923 14.4327 11.6923C14.3199 11.6923 14.1763 11.6794 14.002 11.6538C13.8275 11.6281 13.6839 11.5999 13.5712 11.5693C13.9656 11.0951 14.2686 10.5691 14.4805 9.99126C14.6921 9.41343 14.798 8.81343 14.798 8.19126C14.798 7.56893 14.69 6.97118 14.474 6.39801C14.258 5.82501 13.9571 5.29751 13.5712 4.81551C13.7147 4.76418 13.8583 4.73084 14.002 4.71551C14.1455 4.70001 14.2891 4.69226 14.4327 4.69226C15.3952 4.69226 16.2191 5.03501 16.9045 5.72051C17.5898 6.40584 17.9325 7.22976 17.9325 8.19226ZM3.29797 17.8078H15.298V17.0845C15.298 16.8757 15.2457 16.6898 15.1412 16.527C15.0369 16.3642 14.8712 16.2218 14.6442 16.1C13.8212 15.6757 12.9738 15.3542 12.102 15.1355C11.2301 14.917 10.2955 14.8078 9.29797 14.8078C8.30064 14.8078 7.36605 14.917 6.49422 15.1355C5.62238 15.3542 4.77497 15.6757 3.95197 16.1C3.72497 16.2218 3.55922 16.3642 3.45472 16.527C3.35022 16.6898 3.29797 16.8757 3.29797 17.0845V17.8078ZM9.29797 10.1923C9.84797 10.1923 10.3188 9.99643 10.7105 9.60476C11.1021 9.21309 11.298 8.74226 11.298 8.19226C11.298 7.64226 11.1021 7.17143 10.7105 6.77976C10.3188 6.38809 9.84797 6.19226 9.29797 6.19226C8.74797 6.19226 8.27714 6.38809 7.88547 6.77976C7.4938 7.17143 7.29797 7.64226 7.29797 8.19226C7.29797 8.74226 7.4938 9.21309 7.88547 9.60476C8.27714 9.99643 8.74797 10.1923 9.29797 10.1923Z" fill="white"/>
</g>
</svg>
