<svg width="24" height="24" viewBox="0 0 24 24" fill="none" xmlns="http://www.w3.org/2000/svg">
<path d="M19.2288 7.33647L14.0499 3.70905C12.6383 2.71893 10.4715 2.77294 9.1139 3.82606L4.60939 7.34547C3.71029 8.04755 3 9.48772 3 10.6218V16.8325C3 19.1278 4.86114 21 7.15385 21H16.8461C19.1389 21 21 19.1368 21 16.8415V10.7388C21 9.52372 20.2178 8.02955 19.2288 7.33647ZM12.6743 17.3996C12.6743 17.7686 12.3686 18.0747 12 18.0747C11.6314 18.0747 11.3257 17.7686 11.3257 17.3996V14.6993C11.3257 14.3302 11.6314 14.0242 12 14.0242C12.3686 14.0242 12.6743 14.3302 12.6743 14.6993V17.3996Z" fill="white"/>
</svg>
