<svg width="21" height="21" viewBox="0 0 21 21" fill="none" xmlns="http://www.w3.org/2000/svg">
<path fill-rule="evenodd" clip-rule="evenodd" d="M7.42483 6.09165C7.05462 6.18321 6.79473 6.52439 6.79473 6.91666V10.3728V12.4903H6.28054C5.12129 12.4903 4.06394 13.3509 3.94895 14.5403C3.8162 15.9088 4.85485 17.0625 6.15433 17.0625H7.20046C8.39056 17.0625 9.35442 16.0679 9.35442 14.8419V14.4236V12.4903V9.73575L14.5028 8.47029V11.2576H14.1401C12.9799 11.2576 11.9235 12.1173 11.8075 13.3076C11.6748 14.6761 12.7134 15.8298 14.0129 15.8298H14.9085C16.0986 15.8298 17.0625 14.8352 17.0625 13.6083V13.19V11.2576V7.83322V4.78667C17.0625 4.23731 16.5642 3.83252 16.0463 3.96167L7.42483 6.09165Z" fill="#8B8B8B"/>
<mask id="mask0_34_1149" style="mask-type:luminance" maskUnits="userSpaceOnUse" x="3" y="3" width="15" height="15">
<path fill-rule="evenodd" clip-rule="evenodd" d="M7.42483 6.09165C7.05462 6.18321 6.79473 6.52439 6.79473 6.91666V10.3728V12.4903H6.28054C5.12129 12.4903 4.06394 13.3509 3.94895 14.5403C3.8162 15.9088 4.85485 17.0625 6.15433 17.0625H7.20046C8.39056 17.0625 9.35442 16.0679 9.35442 14.8419V14.4236V12.4903V9.73575L14.5028 8.47029V11.2576H14.1401C12.9799 11.2576 11.9235 12.1173 11.8075 13.3076C11.6748 14.6761 12.7134 15.8298 14.0129 15.8298H14.9085C16.0986 15.8298 17.0625 14.8352 17.0625 13.6083V13.19V11.2576V7.83322V4.78667C17.0625 4.23731 16.5642 3.83252 16.0463 3.96167L7.42483 6.09165Z" fill="white"/>
</mask>
<g mask="url(#mask0_34_1149)">
<rect x="-52.5" y="-52.5" width="126" height="126" fill="#8B8B8B"/>
</g>
</svg>
