<svg width="21" height="21" viewBox="0 0 21 21" fill="none" xmlns="http://www.w3.org/2000/svg">
<path fill-rule="evenodd" clip-rule="evenodd" d="M10.5229 11.5506L9.49692 10.8119C9.0719 10.5066 8.9765 9.91519 9.28176 9.49123C9.58701 9.06621 10.1784 8.96976 10.6024 9.27607L11.6284 10.0148C12.0534 10.3201 12.1499 10.9115 11.8435 11.3355C11.5383 11.7594 10.9469 11.8559 10.5229 11.5506ZM14.3937 12.0053L14.9067 12.3752L17.7546 8.41967C18.026 8.04234 17.9412 7.51557 17.5628 7.24424L16.3693 6.38359C16.0895 6.18327 15.7027 6.14618 15.4239 6.34756C14.8621 6.7535 14.0821 6.77576 13.4896 6.34862C12.8971 5.92148 12.6703 5.17425 12.8769 4.51393C12.9798 4.18536 12.8218 3.83029 12.5431 3.62891L11.3486 2.76932C10.9712 2.49693 10.4445 2.58278 10.1721 2.96011L7.32517 6.91567L7.83817 7.28557C8.26213 7.59082 8.35858 8.18225 8.05333 8.60621C7.74808 9.03017 7.15665 9.12662 6.73163 8.82137L6.21863 8.45147L3.24561 12.5798C2.97427 12.9582 3.05906 13.4839 3.43745 13.7563L4.6309 14.6159C4.91071 14.8172 5.29758 14.8543 5.57633 14.653C6.13808 14.247 6.91817 14.2248 7.51066 14.6519C8.10314 15.079 8.32996 15.8252 8.12328 16.4866C8.02047 16.8141 8.1784 17.1702 8.45715 17.3716L9.65166 18.2312C10.029 18.5025 10.5558 18.4177 10.8282 18.0394L13.8001 13.911L13.2871 13.5411C12.8632 13.2359 12.7667 12.6444 13.072 12.2205C13.3772 11.7965 13.9686 11.7001 14.3937 12.0053Z" fill="#8B8B8B"/>
<mask id="mask0_34_1156" style="mask-type:luminance" maskUnits="userSpaceOnUse" x="3" y="2" width="15" height="17">
<path fill-rule="evenodd" clip-rule="evenodd" d="M10.5229 11.5506L9.49692 10.8119C9.0719 10.5066 8.9765 9.91519 9.28176 9.49123C9.58701 9.06621 10.1784 8.96976 10.6024 9.27607L11.6284 10.0148C12.0534 10.3201 12.1499 10.9115 11.8435 11.3355C11.5383 11.7594 10.9469 11.8559 10.5229 11.5506ZM14.3937 12.0053L14.9067 12.3752L17.7546 8.41967C18.026 8.04234 17.9412 7.51557 17.5628 7.24424L16.3693 6.38359C16.0895 6.18327 15.7027 6.14618 15.4239 6.34756C14.8621 6.7535 14.0821 6.77576 13.4896 6.34862C12.8971 5.92148 12.6703 5.17425 12.8769 4.51393C12.9798 4.18536 12.8218 3.83029 12.5431 3.62891L11.3486 2.76932C10.9712 2.49693 10.4445 2.58278 10.1721 2.96011L7.32517 6.91567L7.83817 7.28557C8.26213 7.59082 8.35858 8.18225 8.05333 8.60621C7.74808 9.03017 7.15665 9.12662 6.73163 8.82137L6.21863 8.45147L3.24561 12.5798C2.97427 12.9582 3.05906 13.4839 3.43745 13.7563L4.6309 14.6159C4.91071 14.8172 5.29758 14.8543 5.57633 14.653C6.13808 14.247 6.91817 14.2248 7.51066 14.6519C8.10314 15.079 8.32996 15.8252 8.12328 16.4866C8.02047 16.8141 8.1784 17.1702 8.45715 17.3716L9.65166 18.2312C10.029 18.5025 10.5558 18.4177 10.8282 18.0394L13.8001 13.911L13.2871 13.5411C12.8632 13.2359 12.7667 12.6444 13.072 12.2205C13.3772 11.7965 13.9686 11.7001 14.3937 12.0053Z" fill="white"/>
</mask>
<g mask="url(#mask0_34_1156)">
<rect x="-52.5" y="-52.5" width="126" height="126" fill="#8B8B8B"/>
</g>
</svg>
